<svg width="77" height="84" viewBox="0 0 77 84" fill="none" xmlns="http://www.w3.org/2000/svg">
<path fill-rule="evenodd" clip-rule="evenodd" d="M38.5399 5.45509C33.254 5.32822 21.1725 7.91622 15.1338 19.2831C15.1127 19.6002 14.601 20.2853 12.7234 20.4883C11.6874 22.7929 9.74215 28.3537 10.2496 32.1596C11.0742 32.0327 12.8502 32.1596 13.3577 33.682C14.0131 33.8934 15.3748 34.7857 15.5778 36.6632C15.5853 36.7324 15.5931 36.8073 15.6014 36.8874L15.6014 36.8874C15.8765 39.5225 16.7428 47.8196 25.8537 47.5734C23.8873 50.3644 20.018 57.0627 20.2717 61.5282C20.5888 67.1102 21.7941 67.6811 25.8537 66.6027C29.1013 65.7401 34.4265 65.3764 36.1814 65.3341C32.6716 66.5816 24.6357 69.5333 24.585 71.1064C24.5216 73.0727 33.846 73.4533 38.5399 73.3899V83.3486L35.178 82.0799L35.6855 83.3486L28.9618 79.0352L29.9133 81.065C28.0103 79.6907 24.0141 76.6502 23.2529 75.4831C22.4918 74.316 23.8238 76.8997 24.585 78.3375C23.0204 77.5129 19.5232 74.9376 18.0516 71.2332L18.8128 74.7854C17.6499 74.0665 15.1338 71.6899 14.3726 67.9348V69.8377C13.3577 68.5057 11.3406 64.7759 11.3913 60.5133L10.3764 62.8603C10.1438 61.9511 9.78016 59.6761 10.1861 57.8492H5.87281C5.36536 57.6801 4.33778 57.0754 4.28703 56.0097C3.67386 56.0943 2.43484 55.7306 2.38409 53.5993C1.79207 52.6056 0.569963 49.5398 0.417728 45.2264C0.265493 40.9131 1.66521 37.7204 2.38409 36.6632C2.25725 35.7963 2.511 34.0752 4.5408 34.126C4.58309 33.4705 4.92139 32.1596 5.93628 32.1596H7.96608C8.36781 28.9035 9.52649 21.9091 10.9473 19.9808C10.4822 19.4734 9.69141 18.1921 10.2496 17.1264L10.2612 17.1043C11.0303 15.6349 18.9164 0.567882 38.5399 0V5.45509ZM16.4659 29.8127C17.4596 26.6411 20.7284 19.3973 25.8537 15.7944L25.0291 18.2682C26.2977 16.619 30.8013 11.9885 30.8013 11.9885L29.9133 14.2086C31.3299 12.7074 35.9392 9.07066 35.9392 9.07066L35.2415 10.7833L38.5399 9.07066V28.8612C37.673 29.0515 34.734 29.153 29.9133 28.0366C25.0925 26.9202 23.6336 28.1212 23.5067 28.8612C21.4346 28.7978 17.1255 28.8993 16.4659 29.8127ZM41.3109 46.7573L41.3106 46.7574C39.934 46.9509 38.8919 47.0974 38.4853 47.1135C38.1029 47.1016 37.1196 46.9613 35.7987 46.7729L35.7986 46.7729L35.7983 46.7729L35.7967 46.7726L35.7966 46.7726L35.7965 46.7726C34.7804 46.6277 33.5647 46.4543 32.2692 46.2889C28.0483 45.7501 25.4186 49.9045 28.3999 52.6955C28.4422 51.004 29.161 47.5702 31.6983 47.3673C32.8459 47.2754 35.4583 47.7184 37.0974 47.9963L37.0977 47.9963C37.7858 48.113 38.3024 48.2006 38.467 48.2073V48.2076C38.8073 48.2338 39.7546 48.0727 40.8659 47.8838C42.4472 47.6149 44.3605 47.2897 45.3291 47.3672C47.8663 47.5701 48.5852 51.0039 48.6275 52.6954C51.6088 49.9044 48.979 45.75 44.7582 46.2888C43.5084 46.4484 42.3198 46.6155 41.3109 46.7573ZM39.2397 50.6021L39.4934 54.5349C39.6003 52.7706 40.7887 52.6736 42.4888 52.5348C42.8058 52.5089 43.1406 52.4815 43.4896 52.4416C44.7582 52.4416 46.5343 51.3633 46.2171 50.0947C45.5641 47.4827 40.6986 49.3335 39.2397 50.6021ZM37.7877 50.6022L37.534 54.535C37.427 52.7707 36.2387 52.6737 34.5386 52.5349L34.5383 52.5348C34.2213 52.509 33.8866 52.4816 33.5378 52.4417C32.2692 52.4417 30.4931 51.3634 30.8103 50.0948C31.4633 47.4828 36.3288 49.3336 37.7877 50.6022ZM61.9463 19.2831C55.9076 7.91622 43.8261 5.32822 38.5402 5.45509V0C58.1636 0.567881 66.0497 15.6348 66.8189 17.1043L66.8305 17.1264C67.3887 18.1921 66.5979 19.4734 66.1327 19.9808C67.5536 21.9091 68.7123 28.9035 69.114 32.1596H71.1438C72.1587 32.1596 72.497 33.4705 72.5393 34.126C74.5691 34.0752 74.8228 35.7963 74.696 36.6632C75.4149 37.7204 76.8146 40.9131 76.6624 45.2264C76.5101 49.5398 75.288 52.6056 74.696 53.5993C74.6452 55.7306 73.4062 56.0943 72.793 56.0097C72.7423 57.0754 71.7147 57.6801 71.2073 57.8492H66.894C67.2999 59.6761 66.9362 61.9511 66.7037 62.8603L65.6888 60.5133C65.7395 64.7759 63.7224 68.5057 62.7075 69.8377V67.9348C61.9463 71.6899 59.4302 74.0665 58.2673 74.7854L59.0285 71.2332C57.5569 74.9376 54.0597 77.5129 52.4951 78.3375C53.2562 76.8997 54.5883 74.316 53.8271 75.4831C53.066 76.6502 49.0698 79.6907 47.1668 81.065L48.1183 79.0352L41.3946 83.3486L41.9021 82.0799L38.5402 83.3486V73.3899C43.234 73.4533 52.5585 73.0727 52.4951 71.1064C52.4443 69.5333 45.4119 66.645 41.9021 65.3975C43.657 65.4398 47.9787 65.7401 51.2264 66.6027C55.286 67.6811 56.4912 67.1102 56.8084 61.5282C57.0621 57.0627 53.1928 50.3644 51.2264 47.5734C60.3373 47.8196 61.2035 39.5224 61.4786 36.8874C61.487 36.8073 61.4948 36.7325 61.5023 36.6632C61.7053 34.7857 63.0669 33.8934 63.7224 33.682C64.2298 32.1596 66.0059 32.0327 66.8305 32.1596C67.3379 28.3537 65.3927 22.7929 64.3567 20.4883C62.4791 20.2853 61.9674 19.6002 61.9463 19.2831ZM51.2264 15.7944C56.3516 19.3973 59.6205 26.6411 60.6142 29.8127C59.9545 28.8993 55.6454 28.7978 53.5734 28.8612C53.4465 28.1212 51.9876 26.9202 47.1668 28.0366C42.346 29.153 39.4071 29.0515 38.5402 28.8612V9.07066L41.8386 10.7833L41.1409 9.07066C41.1409 9.07066 45.7502 12.7074 47.1668 14.2086L46.2788 11.9885C46.2788 11.9885 50.7824 16.619 52.051 18.2682L51.2264 15.7944ZM32.5793 31.2084C35.4718 32.2233 37.7596 32.6462 38.5419 32.7307V35.0777C38.5419 35.0777 37.8949 35.1411 37.083 36.6635C36.4926 37.8155 36.1048 38.9381 35.7432 39.9852C34.5117 43.5507 33.5823 46.2416 25.9825 46.2416C18.1219 46.2416 17.2935 40.8566 16.406 35.0884L16.4044 35.0777C15.3261 35.1411 14.0335 31.9215 16.0872 31.2084C20.6542 29.6226 28.9638 29.9398 32.5793 31.2084ZM20.0823 34.2536C19.4226 34.964 19.5114 36.7485 19.6383 37.552C20.5517 35.5729 23.7402 34.1901 25.2202 33.7461C23.7824 33.6193 20.742 33.5431 20.0823 34.2536ZM38.5519 32.7298C39.3342 32.6452 41.6219 32.2224 44.5144 31.2075C48.13 29.9388 56.4395 29.6217 61.0065 31.2075C63.0602 31.9206 61.7677 35.1402 60.6894 35.0768L60.6877 35.0875C59.8003 40.8557 58.9718 46.2407 51.1113 46.2407C43.5114 46.2407 42.582 43.5497 41.3506 39.9843C40.9889 38.9371 40.6012 37.8146 40.0108 36.6625C39.1989 35.1402 38.5519 35.0768 38.5519 35.0768V32.7298ZM44.099 37.5705C43.9721 36.7671 43.8833 34.9825 44.543 34.2721C45.2027 33.5617 48.2431 33.6378 49.6809 33.7647C48.2009 34.2087 45.0124 35.5915 44.099 37.5705ZM25.1319 61.3853C25.6015 60.9872 26.2491 60.6351 27.0477 60.498C32.459 59.5693 42.8014 58.1886 52.688 61.0618C52.8472 61.1081 53.145 61.2547 53.2792 61.3521C54.236 62.047 53.0615 62.6817 51.9081 62.4208C46.8971 61.2872 35.7453 60.1043 26.2434 62.4579C25.0376 62.7565 24.1844 62.1888 25.1319 61.3853Z" fill="white"/>
</svg>
